# xmcd
#
# Track frame offsets:
#	150
#	15115
#	28772
#	40782
#	53565
#	67947
#	78850
#	90487
#	101050
#	110937
#	124782
#	137610
#	149380
#	159977
#	173040
#	189472
#
# Disc length: 2730 seconds
#
# Revision: 1
# Processed by: cddbd v1.4PL0 Copyright (c) Steve Scherf et al.
# Submitted via: audiograbber 1.80
#
DISCID=c50aa810
DTITLE=Don Gibson - (I´d Be) A Legend In My Time
DYEAR=1900
DGENRE=
TTITLE0=I Can´t Stop Loving You
TTITLE1=There Goes My Everything
TTITLE2=Oh Lonesome Me
TTITLE3=Cold Cold Heart
TTITLE4=You Win Again
TTITLE5=Funny Familiar
TTITLE6=(I´d Be) A Legend In My Time
TTITLE7=Sea Of Heartbreak
TTITLE8=Take These Chains From My Heart
TTITLE9=Release Me
TTITLE10=I Love You Because
TTITLE11=My Elusive Dreams
TTITLE12=Lonesome Number One
TTITLE13=Too Soon To Know
TTITLE14=Green Green Grass Of Home
TTITLE15=Sweet Dreams
EXTD=
EXTT0=
EXTT1=
EXTT2=
EXTT3=
EXTT4=
EXTT5=
EXTT6=
EXTT7=
EXTT8=
EXTT9=
EXTT10=
EXTT11=
EXTT12=
EXTT13=
EXTT14=
EXTT15=
PLAYORDER=
